<svg width="80" height="30" viewBox="0 0 80 30" fill="none" xmlns="http://www.w3.org/2000/svg">
  <path d="M30.437 9.235H25.07C24.7458 9.235 24.4683 9.45813 24.3975 9.77375L22.1667 23.0175C22.1667 23.0175 22.1667 23.0175 22.1667 23.0175C22.1192 23.2406 22.2842 23.4404 22.5142 23.4404H25.07C25.3942 23.4404 25.6717 23.2173 25.7425 22.9017L26.2842 19.7985C26.355 19.4829 26.6325 19.2598 26.9567 19.2598H28.6758C32.0875 19.2598 34.0608 17.5406 34.5792 14.2931C34.8092 12.9485 34.6208 11.8887 33.9667 11.1406C33.2417 10.3227 32.0167 9.235 30.437 9.235ZM31.0675 14.4696C30.7908 16.4194 29.2583 16.4194 27.8192 16.4194H27.0233L27.5417 13.3394C27.5892 13.1163 27.7775 12.9631 28.0075 12.9631H28.3792C29.3692 12.9631 30.3125 12.9631 30.8075 13.5581C31.0908 13.8969 31.1617 14.1194 31.0675 14.4696Z" fill="#253B80"/>
  <path d="M44.0358 14.3873H41.4567C41.2267 14.3873 41.0383 14.5406 40.9908 14.7637L40.8733 15.4419L40.7083 15.2188C40.2375 14.5406 39.1775 14.2483 38.1167 14.2483C35.7683 14.2483 33.7717 16.0371 33.3717 18.5229C33.1658 19.7613 33.4433 20.9531 34.1683 21.7944C34.8225 22.5656 35.7683 22.9048 36.9217 22.9048C38.7817 22.9048 39.8417 21.7246 39.8417 21.7246L39.7242 22.4027C39.6767 22.6258 39.8417 22.8256 40.0717 22.8256H42.4083C42.7325 22.8256 43.01 22.6025 43.0808 22.2869L44.3767 14.8102C44.4242 14.5871 44.2592 14.3873 44.0358 14.3873ZM40.5908 18.5694C40.3842 19.7846 39.3942 20.6025 38.1875 20.6025C37.5808 20.6025 37.0858 20.4027 36.7617 20.0169C36.4375 19.6312 36.3433 19.0829 36.4608 18.4979C36.6675 17.2827 37.6808 16.4648 38.8642 16.4648C39.4708 16.4648 39.9658 16.6646 40.29 17.0504C40.6142 17.4594 40.7083 18.0077 40.5908 18.5694Z" fill="#253B80"/>
  <path d="M56.0275 14.3873H53.4483C53.1717 14.3873 52.9183 14.5173 52.7533 14.7404L49.2475 19.8219L47.7858 14.9169C47.6917 14.6006 47.3908 14.3873 47.0667 14.3873H44.535C44.305 14.3873 44.14 14.5871 44.14 14.8102C44.14 14.8567 44.14 14.9033 44.1633 14.9498L47.0667 22.1242L44.3767 25.8656C44.2358 26.0654 44.3533 26.3344 44.5833 26.3344H47.1608C47.4375 26.3344 47.6917 26.2044 47.8567 25.9813L56.2575 14.8567C56.3983 14.6569 56.2808 14.3873 56.0275 14.3873Z" fill="#253B80"/>
  <path d="M64.6033 9.235H59.2367C58.9125 9.235 58.635 9.45813 58.5642 9.77375L56.3333 23.0175C56.3333 23.0175 56.3333 23.0175 56.3333 23.0175C56.2858 23.2406 56.4508 23.4404 56.6808 23.4404H59.4717C59.6783 23.4404 59.8667 23.2871 59.9142 23.0873L60.4558 19.7985C60.5267 19.4829 60.8042 19.2598 61.1283 19.2598H62.8475C66.2592 19.2598 68.2325 17.5406 68.7508 14.2931C68.9808 12.9485 68.7925 11.8887 68.1383 11.1406C67.4133 10.3227 66.1883 9.235 64.6033 9.235ZM65.2338 14.4696C64.9571 16.4194 63.4246 16.4194 61.9858 16.4194H61.19L61.7083 13.3394C61.7558 13.1163 61.9442 12.9631 62.1742 12.9631H62.5458C63.5358 12.9631 64.4792 12.9631 64.9742 13.5581C65.2575 13.8969 65.3283 14.1194 65.2338 14.4696Z" fill="#179BD7"/>
  <path d="M78.2025 14.3873H75.6233C75.3933 14.3873 75.205 14.5406 75.1575 14.7637L75.04 15.4419L74.875 15.2188C74.4042 14.5406 73.3442 14.2483 72.2833 14.2483C69.935 14.2483 67.9383 16.0371 67.5383 18.5229C67.3325 19.7613 67.61 20.9531 68.335 21.7944C68.9892 22.5656 69.935 22.9048 71.0883 22.9048C72.9483 22.9048 74.0083 21.7246 74.0083 21.7246L73.8908 22.4027C73.8433 22.6258 74.0083 22.8256 74.2383 22.8256H76.575C76.8992 22.8256 77.1767 22.6025 77.2475 22.2869L78.5433 14.8102C78.5908 14.5871 78.4258 14.3873 78.2025 14.3873ZM74.7575 18.5694C74.5508 19.7846 73.5608 20.6025 72.3542 20.6025C71.7475 20.6025 71.2525 20.4027 70.9283 20.0169C70.6042 19.6312 70.51 19.0829 70.6275 18.4979C70.8342 17.2827 71.8475 16.4648 73.0308 16.4648C73.6375 16.4648 74.1325 16.6646 74.4567 17.0504C74.7808 17.4594 74.875 18.0077 74.7575 18.5694Z" fill="#179BD7"/>
  <path d="M18.4475 9.235H13.0808C12.7567 9.235 12.4792 9.45813 12.4083 9.77375L10.1775 23.0175C10.1775 23.0175 10.1775 23.0175 10.1775 23.0175C10.13 23.2406 10.295 23.4404 10.525 23.4404H13.2925C13.6167 23.4404 13.8942 23.2173 13.965 22.9017L14.5067 19.7985C14.5775 19.4829 14.855 19.2598 15.1792 19.2598H16.8983C20.31 19.2598 22.2833 17.5406 22.8017 14.2931C23.0317 12.9485 22.8433 11.8887 22.1892 11.1406C21.4642 10.3227 20.2392 9.235 18.4475 9.235ZM19.0783 14.4696C18.8017 16.4194 17.2692 16.4194 15.83 16.4194H15.0342L15.5525 13.3394C15.6 13.1163 15.7883 12.9631 16.0183 12.9631H16.39C17.38 12.9631 18.3233 12.9631 18.8183 13.5581C19.1017 13.8969 19.1725 14.1194 19.0783 14.4696Z" fill="#179BD7"/>
  <path d="M32.0467 14.3873H29.4675C29.2375 14.3873 29.0492 14.5406 29.0017 14.7637L28.8842 15.4419L28.7192 15.2188C28.2483 14.5406 27.1883 14.2483 26.1275 14.2483C23.7792 14.2483 21.7825 16.0371 21.3825 18.5229C21.1767 19.7613 21.4542 20.9531 22.1792 21.7944C22.8333 22.5656 23.7792 22.9048 24.9325 22.9048C26.7925 22.9048 27.8525 21.7246 27.8525 21.7246L27.735 22.4027C27.6875 22.6258 27.8525 22.8256 28.0825 22.8256H30.4192C30.7433 22.8256 31.0208 22.6025 31.0917 22.2869L32.3875 14.8102C32.435 14.5871 32.27 14.3873 32.0467 14.3873ZM28.6017 18.5694C28.395 19.7846 27.405 20.6025 26.1983 20.6025C25.5917 20.6025 25.0967 20.4027 24.7725 20.0169C24.4483 19.6312 24.3542 19.0829 24.4717 18.4979C24.6783 17.2827 25.6917 16.4648 26.875 16.4648C27.4817 16.4648 27.9767 16.6646 28.3008 17.0504C28.625 17.4594 28.7192 18.0077 28.6017 18.5694Z" fill="#179BD7"/>
</svg>