<svg width="80" height="30" viewBox="0 0 80 30" fill="none" xmlns="http://www.w3.org/2000/svg">
  <path d="M8.62 12.52C8.62 11.98 9.07 11.76 9.85 11.76C11.02 11.76 12.53 12.09 13.7 12.7V8.9C12.42 8.4 11.14 8.18 9.85 8.18C6.5 8.18 4.2 9.9 4.2 12.7C4.2 17.05 10.13 16.33 10.13 18.1C10.13 18.77 9.57 18.99 8.73 18.99C7.45 18.99 5.76 18.49 4.42 17.83V21.68C5.87 22.29 7.34 22.57 8.73 22.57C12.14 22.57 14.55 20.9 14.55 18.05C14.55 13.36 8.62 14.24 8.62 12.52Z" fill="#6772E5"/>
  <path d="M22.61 12.36C21.44 12.36 20.55 12.75 19.94 13.36L19.72 12.58H15.97V29.5L20.05 28.67L20.1 22.07C20.71 22.57 21.55 22.9 22.61 22.9C25.29 22.9 27.64 20.9 27.64 17.55C27.58 14.46 25.24 12.36 22.61 12.36ZM21.66 19.21C20.93 19.21 20.49 19.04 20.1 18.71L20.05 16.22C20.49 15.83 20.99 15.66 21.66 15.66C22.78 15.66 23.56 16.44 23.56 17.44C23.56 18.43 22.78 19.21 21.66 19.21Z" fill="#6772E5"/>
  <path d="M34.73 12.36C31.38 12.36 29.03 14.74 29.03 17.66C29.03 20.57 31.32 22.9 34.79 22.9C36.4 22.9 37.62 22.57 38.57 22.02V18.88C37.62 19.37 36.62 19.65 35.4 19.65C34.17 19.65 33.17 19.26 32.89 18.21H38.9C38.95 18.05 38.95 17.77 38.95 17.55C38.9 14.74 37.18 12.36 34.73 12.36ZM34.67 15.5C35.34 15.5 35.9 15.88 36.07 16.77H32.95C33.12 15.94 33.73 15.5 34.67 15.5Z" fill="#6772E5"/>
  <path d="M47.93 15.77L47.6 12.58H43.91V22.68H47.99V16.83C48.82 15.72 50.21 15.94 50.71 16.11V12.58C50.15 12.36 48.71 12.03 47.93 15.77Z" fill="#6772E5"/>
  <path d="M55.58 8.68L51.5 9.51L51.44 18.77C51.44 21.07 53.19 22.9 55.52 22.9C56.69 22.9 57.58 22.68 58.08 22.4V19.15C57.58 19.37 55.52 19.93 55.52 17.88V15.83H58.08V12.58H55.52L55.58 8.68Z" fill="#6772E5"/>
  <path d="M66.22 12.36C64.94 12.36 64.1 12.86 63.66 13.19L63.44 12.58H59.69V22.68H63.77V16.33C64.27 15.77 65.05 15.55 65.83 15.55C66.89 15.55 67.5 16.11 67.5 17.16V22.68H71.58V16.55C71.58 13.97 69.4 12.36 66.22 12.36Z" fill="#6772E5"/>
  <path d="M75.66 10.15C76.94 10.15 77.94 9.18 77.94 7.95C77.94 6.73 76.94 5.76 75.66 5.76C74.38 5.76 73.38 6.73 73.38 7.95C73.38 9.18 74.38 10.15 75.66 10.15ZM73.61 22.68H77.69V12.58H73.61V22.68Z" fill="#6772E5"/>
</svg>